<?xml version="1.0" encoding="UTF-8" standalone="no"?><!DOCTYPE svg PUBLIC "-//W3C//DTD SVG 1.1//EN" "http://www.w3.org/Graphics/SVG/1.1/DTD/svg11.dtd"><svg width="100%" height="100%" viewBox="0 0 437 94" version="1.1" xmlns="http://www.w3.org/2000/svg" xmlns:xlink="http://www.w3.org/1999/xlink" xml:space="preserve" xmlns:serif="http://www.serif.com/" style="fill-rule:evenodd;clip-rule:evenodd;stroke-linejoin:round;stroke-miterlimit:2;"><g><g><g><path d="M-0,93.561l4.913,0l-0,-6.622l7.875,-0l-0,-4.49l-7.875,0l-0,-3.423l9.381,0l-0,-4.812l-14.294,0l-0,19.347Z" style="fill-rule:nonzero;"/><rect x="19.379" y="74.214" width="4.937" height="19.347" style="fill-rule:nonzero;"/><path d="M35.179,93.561l0,-10.789l8.591,10.789l4.173,0l-0,-19.347l-4.913,0l-0,10.815l-8.591,-10.815l-4.197,0l-0,19.347l4.937,0Z" style="fill-rule:nonzero;"/><path d="M60.187,74.214l-7.801,19.347l5.382,0l1.062,-2.827l7.579,-0l1.061,2.827l5.382,0l-7.777,-19.347l-4.888,0Zm4.543,12.03l-4.222,0l2.123,-5.68l2.099,5.68Z" style="fill-rule:nonzero;"/><path d="M82.233,93.561l0,-10.789l8.591,10.789l4.172,0l0,-19.347l-4.912,0l-0,10.815l-8.592,-10.815l-4.196,0l-0,19.347l4.937,0Z" style="fill-rule:nonzero;"/><path d="M114.845,86.393c-0.445,0.843 -1.074,1.513 -1.889,2.009c-0.814,0.496 -1.724,0.744 -2.728,0.744c-1.448,0 -2.682,-0.512 -3.703,-1.538c-1.02,-1.025 -1.53,-2.265 -1.53,-3.72c-0,-1.455 0.51,-2.695 1.53,-3.721c1.021,-1.025 2.255,-1.537 3.703,-1.537c0.988,-0 1.893,0.252 2.716,0.756c0.823,0.504 1.456,1.17 1.901,1.997l4.493,-2.034c-0.872,-1.654 -2.119,-2.985 -3.74,-3.994c-1.621,-1.008 -3.411,-1.513 -5.37,-1.513c-2.781,0 -5.18,0.984 -7.196,2.952c-2.016,1.968 -3.024,4.332 -3.024,7.094c-0,2.761 1.008,5.126 3.024,7.094c2.016,1.968 4.415,2.951 7.196,2.951c1.959,0 3.757,-0.508 5.394,-1.525c1.638,-1.017 2.885,-2.361 3.741,-4.031l-4.518,-1.984Z" style="fill-rule:nonzero;"/><rect x="124.053" y="74.214" width="4.937" height="19.347" style="fill-rule:nonzero;"/><path d="M141.235,74.214l-7.801,19.347l5.382,0l1.062,-2.827l7.579,-0l1.061,2.827l5.382,0l-7.777,-19.347l-4.888,0Zm4.543,12.03l-4.222,0l2.123,-5.68l2.099,5.68Z" style="fill-rule:nonzero;"/><path d="M158.344,93.561l14.145,0l0,-4.787l-9.233,0l0,-14.56l-4.912,0l-0,19.347Z" style="fill-rule:nonzero;"/></g><g><rect x="188.838" y="74.214" width="4.937" height="19.347" style="fill-rule:nonzero;"/><path d="M204.638,93.561l0,-10.789l8.591,10.789l4.172,0l0,-19.347l-4.912,0l-0,10.815l-8.592,-10.815l-4.196,0l-0,19.347l4.937,0Z" style="fill-rule:nonzero;"/><path d="M223.326,93.561l8.937,0c1.942,0 3.613,-0.442 5.012,-1.327c1.398,-0.884 2.431,-2.046 3.098,-3.485c0.666,-1.438 1,-3.059 1,-4.861c-0,-1.786 -0.334,-3.398 -1,-4.837c-0.667,-1.438 -1.7,-2.604 -3.098,-3.497c-1.399,-0.893 -3.07,-1.34 -5.012,-1.34l-8.937,0l0,19.347Zm8.567,-14.535c1.432,0 2.538,0.439 3.32,1.315c0.782,0.876 1.173,2.059 1.173,3.547c-0,1.488 -0.391,2.675 -1.173,3.559c-0.782,0.885 -1.888,1.327 -3.32,1.327l-3.629,0l-0,-9.748l3.629,0Z" style="fill-rule:nonzero;"/><path d="M246.483,93.561l14.787,0l0,-4.787l-9.85,0l0,-2.48l8.098,-0l-0,-4.49l-8.098,0l0,-2.778l9.85,0l0,-4.812l-14.787,0l-0,19.347Z" style="fill-rule:nonzero;"/><path d="M266.628,93.561l4.937,0l0,-4.39l3.555,0c2.436,0 4.304,-0.715 5.604,-2.145c1.3,-1.431 1.95,-3.229 1.95,-5.395c0,-2.084 -0.654,-3.841 -1.962,-5.271c-1.309,-1.43 -3.173,-2.146 -5.592,-2.146l-8.492,0l-0,19.347Zm8.22,-14.832c0.971,-0 1.687,0.277 2.148,0.831c0.461,0.554 0.691,1.252 0.691,2.096c0,2 -0.946,3.001 -2.839,3.001l-3.283,-0l0,-5.928l3.283,-0Z" style="fill-rule:nonzero;"/><path d="M287.538,93.561l14.787,0l0,-4.787l-9.85,0l0,-2.48l8.097,-0l0,-4.49l-8.097,0l0,-2.778l9.85,0l0,-4.812l-14.787,0l-0,19.347Z" style="fill-rule:nonzero;"/><path d="M312.62,93.561l-0,-10.789l8.591,10.789l4.172,0l0,-19.347l-4.913,0l0,10.815l-8.591,-10.815l-4.197,0l0,19.347l4.938,0Z" style="fill-rule:nonzero;"/><path d="M331.308,93.561l8.937,0c1.942,0 3.612,-0.442 5.011,-1.327c1.399,-0.884 2.432,-2.046 3.099,-3.485c0.666,-1.438 0.999,-3.059 0.999,-4.861c0,-1.786 -0.333,-3.398 -0.999,-4.837c-0.667,-1.438 -1.7,-2.604 -3.099,-3.497c-1.399,-0.893 -3.069,-1.34 -5.011,-1.34l-8.937,0l0,19.347Zm8.567,-14.535c1.431,0 2.538,0.439 3.32,1.315c0.782,0.876 1.173,2.059 1.173,3.547c-0,1.488 -0.391,2.675 -1.173,3.559c-0.782,0.885 -1.889,1.327 -3.32,1.327l-3.63,0l0,-9.748l3.63,0Z" style="fill-rule:nonzero;"/><path d="M354.465,93.561l14.787,0l0,-4.787l-9.85,0l0,-2.48l8.097,-0l0,-4.49l-8.097,0l0,-2.778l9.85,0l0,-4.812l-14.787,0l-0,19.347Z" style="fill-rule:nonzero;"/><path d="M379.547,93.561l-0,-10.789l8.591,10.789l4.172,0l0,-19.347l-4.913,0l0,10.815l-8.591,-10.815l-4.197,0l0,19.347l4.938,0Z" style="fill-rule:nonzero;"/><path d="M412.159,86.393c-0.445,0.843 -1.074,1.513 -1.889,2.009c-0.815,0.496 -1.724,0.744 -2.728,0.744c-1.448,0 -2.683,-0.512 -3.703,-1.538c-1.02,-1.025 -1.531,-2.265 -1.531,-3.72c0,-1.455 0.511,-2.695 1.531,-3.721c1.02,-1.025 2.255,-1.537 3.703,-1.537c0.988,-0 1.893,0.252 2.716,0.756c0.823,0.504 1.456,1.17 1.901,1.997l4.493,-2.034c-0.873,-1.654 -2.119,-2.985 -3.74,-3.994c-1.622,-1.008 -3.411,-1.513 -5.37,-1.513c-2.781,0 -5.18,0.984 -7.196,2.952c-2.016,1.968 -3.024,4.332 -3.024,7.094c-0,2.761 1.008,5.126 3.024,7.094c2.016,1.968 4.415,2.951 7.196,2.951c1.959,0 3.757,-0.508 5.394,-1.525c1.638,-1.017 2.885,-2.361 3.74,-4.031l-4.517,-1.984Z" style="fill-rule:nonzero;"/><path d="M421.367,93.561l14.788,0l-0,-4.787l-9.851,0l0,-2.48l8.098,-0l-0,-4.49l-8.098,0l0,-2.778l9.851,0l-0,-4.812l-14.788,0l-0,19.347Z" style="fill-rule:nonzero;"/></g></g><g><path d="M208.552,25.183c0,-13.908 11.222,-25.183 25.065,-25.183c13.834,0 25.065,11.284 25.065,25.183c-0,13.908 -11.222,25.183 -25.065,25.183l-0,-9.569c8.583,-0 15.54,-6.991 15.54,-15.614c0,-8.617 -6.963,-15.613 -15.54,-15.613c-8.583,-0 -15.54,6.99 -15.54,15.613l-9.525,0Z"/><path d="M202.538,0c-13.843,0 -25.065,11.275 -25.065,25.183c-0,13.899 11.231,25.183 25.065,25.183c13.843,0 25.064,-11.275 25.064,-25.183l-9.524,0c-0,8.623 -6.958,15.614 -15.54,15.614c-8.577,-0 -15.541,-6.997 -15.541,-15.614c0,-8.623 6.958,-15.613 15.541,-15.613l-0,-9.57Z"/><path d="M174.992,25.152c0,-1.722 -0.684,-3.373 -1.901,-4.59c-1.218,-1.218 -2.869,-1.902 -4.591,-1.902c0,0 -0,0 -0,0c-1.722,0 -3.373,0.684 -4.591,1.902c-1.217,1.217 -1.901,2.868 -1.901,4.59c-0,0.021 -0,0.041 -0,0.062c-0,1.722 0.684,3.373 1.901,4.591c1.218,1.217 2.869,1.901 4.591,1.901c-0,0 0,0 0,0c1.722,0 3.373,-0.684 4.591,-1.901c1.217,-1.218 1.901,-2.869 1.901,-4.591c0,-0.021 0,-0.041 0,-0.062Z"/><path d="M274.147,25.152c-0,-1.722 -0.684,-3.373 -1.902,-4.59c-1.217,-1.218 -2.868,-1.902 -4.59,-1.902c-0,0 -0,0 -0.001,0c-1.721,0 -3.373,0.684 -4.59,1.902c-1.218,1.217 -1.902,2.868 -1.902,4.59c0,0.021 0,0.041 0,0.062c0,1.722 0.684,3.373 1.902,4.591c1.217,1.217 2.869,1.901 4.59,1.901c0.001,0 0.001,0 0.001,0c1.722,0 3.373,-0.684 4.59,-1.901c1.218,-1.218 1.902,-2.869 1.902,-4.591c-0,-0.021 -0,-0.041 -0,-0.062Z"/></g></g></svg>