<svg xmlns="http://www.w3.org/2000/svg" viewBox="0 0 1822.16 329.02">
    <defs>
        <style>.cls-1{fill:transparent;stroke:#000;stroke-miterlimit:10;stroke-width:3px;stroke-dasharray:12;}</style>
    </defs>
    <g id="Layer_2" data-name="Layer 2">
        <g id="Layer_1-2" data-name="Layer 1">
            <path class="cls-1" d="M.88,238c29,21,72,24,98,21s57-44,88-50,58,38,102,46c39.4,7.16,161,1,183-68s-21.08-110.4-54-104c-36,7-48,38-35,71s21,50,67,85,117.63,69.73,189,84c80,16,209.24-12.95,263-47,60-38,119.34-91.65,148-123,32-35,96-129,160-144s85.89,12.35,103,53c8,19,5,57-4,74-20.52,38.75-62,34-76,24-21-15-37-54-32-77,7.86-36.17,20-51,42-63,33.77-18.42,154-26,214-9s184,85,204,93,114,30,161,21"/>
        </g>
    </g>
</svg>
